<svg xmlns="http://www.w3.org/2000/svg" viewBox="40 190 1920 1620"><path fill="#e0483c" fill-rule="evenodd" d="M 983.6 210.6 C 966.8 214.7 954.6 226.9 948.7 245.4 L 946.5 252.5 946.5 380.5 L 946.5 508.5 949.1 516.2 C 955.7 535.6 969.2 547.2 988.3 550.2 C 1016.5 554.5 1039.5 537.8 1045.5 508.6 C 1047.9 496.6 1048.1 262.4 1045.6 251 C 1039.1 220.6 1012.9 203.5 983.6 210.6 M 357.9 472.4 C 339.9 477.4 324.3 495 321.7 513.3 C 319.2 530.9 324.8 544.1 343.2 563.9 C 366.7 589.1 507.3 728.5 513.2 732.3 C 536.1 747.3 560.7 745 578.7 726.3 C 595.4 708.9 596.8 684.5 582.5 662.5 C 578.1 655.7 418.3 494.7 406.3 485 C 391.1 472.7 373.6 468.1 357.9 472.4 M 1624.3 476 C 1618 477.3 1609.2 481.1 1602.5 485.5 C 1594.5 490.7 1428.2 656.9 1421.6 666.2 C 1413.4 677.9 1411.6 683.5 1411.5 697.5 C 1411.5 709.5 1411.5 709.7 1415.3 717.2 C 1427.1 741.2 1452.7 752.3 1476.5 743.6 C 1490.6 738.5 1490 739.1 1582.5 646.5 C 1674.5 554.5 1674.8 554.2 1679.3 541.1 C 1691.4 506.3 1659.9 469 1624.3 476 M 1290.8 939.5 C 1271.8 944.3 1260.5 957.1 1259.3 974.9 C 1258.5 987.8 1258.5 987.8 1289.2 1072 C 1294.7 1087.1 1301.8 1106.7 1305 1115.5 C 1308.2 1124.3 1317.8 1150.7 1326.3 1174.1 C 1345.1 1225.6 1348.9 1237.4 1353.5 1257.8 C 1365 1309.4 1365.9 1354.1 1356.4 1403.4 C 1324.7 1568.4 1197 1688.3 1032.8 1707 C 1011.3 1709.5 970.5 1709.7 950 1707.5 C 836.5 1695.3 736.9 1631.8 673.1 1531 C 661.1 1512 659 1509.2 653.1 1503.7 C 643.2 1494.6 633.6 1490.9 614.8 1489 C 580.6 1485.6 557.2 1470.2 542.9 1441.8 C 523 1402.2 528.6 1363.4 558.5 1333.5 C 583.8 1308.3 613.3 1301.2 653.8 1310.7 C 663.5 1313 667.8 1313.5 679 1313.5 C 695.3 1313.5 700.9 1312.1 716.5 1304.5 C 769.2 1278.8 802.3 1231.7 811.1 1170 C 813.8 1151.2 812.2 1101 808.4 1088.8 C 807.7 1086.4 804.5 1086.1 760.3 1085.4 C 728.6 1084.9 720 1085 720 1086 C 720 1086.7 722.2 1093.7 725 1101.6 C 731 1119 733 1129.2 733 1142 C 733 1171.6 720.2 1201 700.1 1217.7 C 686.3 1229.2 678.3 1231.1 657.6 1227.9 C 558.7 1212.7 471.1 1271.1 453.1 1364.1 C 435.7 1454.3 485.3 1534.4 578 1566 C 598.8 1573 602 1575.6 619.3 1598.5 C 700.8 1706.9 801.5 1769.6 920 1785.9 C 974 1793.3 1045.7 1790.3 1098 1778.5 C 1261.3 1741.7 1392.6 1608.9 1432.9 1440 C 1446.3 1383.8 1447.5 1321.8 1436.4 1261 C 1426.4 1206.4 1412.3 1163.2 1366.5 1046.5 C 1351.7 1008.8 1344.3 988.9 1337.9 970.1 C 1335.8 963.9 1332.9 956.9 1331.6 954.5 C 1324.1 941.7 1306.9 935.4 1290.8 939.5 M 1156.8 1062.1 C 1133.2 1065.2 1117.8 1081 1117.8 1102.5 C 1117.7 1111.8 1123.9 1132.1 1136.2 1162.9 C 1145.1 1185.3 1146.1 1187.2 1152.9 1194.3 C 1180.1 1222.9 1227 1198.5 1220.2 1159.3 C 1216.5 1137.4 1199.4 1093 1190.4 1081.7 C 1185.7 1075.8 1167.4 1061 1165.1 1061.1 C 1164.2 1061.2 1160.5 1061.6 1156.8 1062.1 M 106.3 1103.1 C 77.8 1106.5 61 1123.5 59.3 1150.5 C 57.7 1176.8 71 1194.8 97.5 1202.2 L 105.5 1204.5 228.5 1204.5 C 365.9 1204.5 359.1 1204.8 373.8 1197.5 C 408.9 1179.9 409.1 1128 374.1 1109.6 C 360 1102.2 368.3 1102.7 234 1102.4 C 167.7 1102.3 110.3 1102.6 106.3 1103.1 M 1649 1103 C 1618.5 1107 1599 1126.7 1599 1153.5 C 1599 1173.2 1608.4 1188.2 1626.2 1196.9 C 1642.4 1204.9 1635.3 1204.5 1771.5 1204.5 L 1892.5 1204.5 1901.4 1202.2 C 1928.6 1195.3 1941 1178.3 1939.8 1150 C 1938.6 1123.6 1923 1107.9 1893.5 1103.4 C 1883.7 1101.9 1660.2 1101.5 1649 1103 M 983.3 1123 C 971.8 1126.8 957.5 1143.2 953.6 1157 C 951.9 1163 951.9 1163.5 954 1173.8 C 959.2 1199.6 978.1 1247.4 986.8 1257.1 C 993.9 1265 999.6 1267.5 1010.5 1267.5 C 1021.3 1267.5 1027.4 1265.1 1035.7 1257.6 C 1041.4 1252.5 1059 1231.8 1059 1230.3 C 1059 1229.8 1055.4 1219.9 1051.1 1208.4 C 1030.6 1154.2 1022.7 1136.7 1015.5 1130.1 C 1006.4 1121.8 994.9 1119.2 983.3 1123 M 935 1438.6 C 927.4 1440.6 922 1444.1 916.5 1450.2 C 901 1467.9 901.4 1488.4 917.6 1505.9 C 941.4 1531.7 987.7 1553 1034.6 1559.5 C 1059.4 1563 1075.2 1563.3 1091.5 1560.5 C 1143.9 1551.5 1158.2 1547 1167.8 1536.5 C 1185.4 1517.3 1178.8 1485.3 1155 1474.1 C 1146.1 1469.9 1131.6 1469.9 1113.5 1474 C 1059 1486.2 1016.7 1479.4 979.5 1452.4 C 960.6 1438.8 948.5 1435 935 1438.6"/></svg>
